<?xml version="1.0" encoding="UTF-8" standalone="no"?>
<svg
   height="48"
   viewBox="0 -960 960 960"
   width="48"
   version="1.1"
   id="svg4"
   sodipodi:docname="pause.svg"
   inkscape:version="1.1.2 (0a00cf5339, 2022-02-04, custom)"
   xmlns:inkscape="http://www.inkscape.org/namespaces/inkscape"
   xmlns:sodipodi="http://sodipodi.sourceforge.net/DTD/sodipodi-0.dtd"
   xmlns="http://www.w3.org/2000/svg"
   xmlns:svg="http://www.w3.org/2000/svg">
  <defs
     id="defs8">
    <linearGradient
       id="linearGradient987"
       inkscape:swatch="solid">
      <stop
         style="stop-color:#ffffff;stop-opacity:1;"
         offset="0"
         id="stop985" />
    </linearGradient>
  </defs>
  <sodipodi:namedview
     id="namedview6"
     pagecolor="#ffffff"
     bordercolor="#666666"
     borderopacity="1.0"
     inkscape:pageshadow="2"
     inkscape:pageopacity="0.0"
     inkscape:pagecheckerboard="0"
     showgrid="false"
     showguides="true"
     inkscape:guide-bbox="true"
     inkscape:lockguides="false"
     inkscape:zoom="16"
     inkscape:cx="47.9375"
     inkscape:cy="15.5"
     inkscape:window-width="2560"
     inkscape:window-height="1369"
     inkscape:window-x="2552"
     inkscape:window-y="-8"
     inkscape:window-maximized="1"
     inkscape:current-layer="svg4" />
  <circle
     style="fill:none;fill-opacity:1;stroke:#cccccc;stroke-width:58.154;stroke-miterlimit:4;stroke-dasharray:none"
     id="path959"
     cx="482.19931"
     cy="-481.64948"
     r="438.58618" />
  <path
     style="fill:#40a040;stroke:#cccccc;stroke-width:0.0137457;stroke-miterlimit:4;stroke-dasharray:none;fill-opacity:0.07"
     d="M 22.817869,47.248442 C 19.671301,47.054323 16.731712,46.291126 13.944834,44.94476 12.821077,44.401863 12.278279,44.091009 11.161512,43.350783 8.5833078,41.641872 6.3856192,39.444184 4.6767087,36.865979 3.9364823,35.749212 3.6256278,35.206415 3.0827312,34.082658 c -3.11627798,-6.450469 -3.11627798,-13.879796 0,-20.330264 0.5428966,-1.123757 0.8537511,-1.666555 1.5939775,-2.783322 1.7134791,-2.5850962 3.899707,-4.7713241 6.4848033,-6.4848032 1.116767,-0.7402264 1.659565,-1.0510808 2.783322,-1.5939774 6.934908,-3.35031504 15.011038,-3.0804917 21.739015,0.7262999 0.773075,0.437418 2.286634,1.4690474 3.024055,2.0611715 3.485534,2.7987678 6.090074,6.5158292 7.521723,10.7346082 1.968236,5.799989 1.587566,12.094754 -1.065008,17.610974 -0.562573,1.16991 -0.870505,1.709777 -1.621396,2.842634 -1.713479,2.585097 -3.899707,4.771325 -6.484804,6.484804 -1.132857,0.750891 -1.672724,1.058824 -2.842635,1.621396 -2.711137,1.303699 -5.535106,2.04772 -8.566299,2.256931 -0.732534,0.05056 -2.166727,0.06035 -2.831616,0.01933 z m 2.461763,-2.87804 c 2.791399,-0.178072 5.24649,-0.812956 7.68191,-1.986535 5.959714,-2.871865 10.161277,-8.391882 11.322208,-14.875128 0.407358,-2.274896 0.407358,-4.90753 0,-7.182426 C 43.340171,15.056875 40.366307,10.36685 35.968553,7.2125724 35.080934,6.5759296 34.286446,6.1087159 33.099656,5.5254626 29.587859,3.7995736 25.814048,3.1333713 21.910653,3.550234 15.550518,4.229464 9.8478169,7.8794117 6.5395717,13.388316 2.9990332,19.284036 2.6617046,26.581001 5.6436245,32.769102 c 2.4112165,5.003774 6.6946725,8.798337 11.9183685,10.558064 2.506563,0.844395 5.176686,1.205331 7.717639,1.043236 z"
     id="path1372"
     transform="matrix(20,0,0,20,0,-960)" />
  <path
     style="fill:#40a040;fill-opacity:1;stroke:#cccccc;stroke-width:0.514;stroke-miterlimit:4;stroke-dasharray:none"
     d="M 22.845361,47.247744 C 18.254223,46.987559 13.788082,45.363074 10.127242,42.621737 2.9311083,37.233077 -0.5295934,28.255507 1.1868208,19.428969 2.9564998,10.32852 10.033262,3.0889408 19.100815,1.102823 c 5.204723,-1.14002017 10.642428,-0.47044007 15.39049,1.8951314 3.301553,1.6448942 6.094104,3.9699637 8.325988,6.9321921 2.529665,3.3574525 4.123505,7.4892285 4.557872,11.8155575 0.09244,0.920705 0.09244,3.422938 0,4.343643 -0.434333,4.325991 -2.028309,8.457717 -4.560534,11.821306 -1.611667,2.140799 -3.703469,4.105783 -5.903258,5.545365 -4.147729,2.71435 -9.173074,4.069014 -14.066012,3.791726 z m 3.47421,-2.961894 C 32.691922,43.584854 38.326919,39.985561 41.664689,34.484321 42.17913,33.636432 42.948236,32.04479 43.295185,31.110057 45.422924,25.377625 44.918209,19.047508 41.913411,13.779885 40.238787,10.844149 37.847933,8.3517817 34.969072,6.5406928 34.079813,5.9812602 32.295362,5.1008266 31.312715,4.7366751 26.609338,2.9936878 21.626734,2.9906186 16.926066,4.7278133 15.950452,5.0883644 14.16422,5.9693839 13.264227,6.5339348 6.4431764,10.812667 2.7603826,18.61637 3.7957959,26.597187 c 0.3293426,2.538526 1.2710392,5.325913 2.5404548,7.519651 3.0789713,5.320921 8.3653573,8.998628 14.3797453,10.003902 0.681824,0.113964 1.448724,0.200139 2.43177,0.273254 0.540849,0.04023 2.398957,-0.02313 3.171805,-0.108144 z"
     id="path1596"
     transform="matrix(20,0,0,20,0,-960)" />
  <path
     style="fill:#40a040;fill-opacity:1;stroke:#cccccc;stroke-width:0.216815;stroke-miterlimit:4;stroke-dasharray:none"
     d="m 542.0401,-481.30663 v -220.71714 h 68.51337 68.51338 v 220.71714 220.71712 H 610.55347 542.0401 Z"
     id="path1635" />
  <path
     style="fill:#40a040;fill-opacity:1;stroke:#cccccc;stroke-width:0.216815;stroke-miterlimit:4;stroke-dasharray:none"
     d="m 285.33176,-481.30663 v -220.71714 h 68.51338 68.51337 v 220.71714 220.71712 h -68.51337 -68.51338 z"
     id="path1750" />
  <path
     style="fill:#40a040;fill-opacity:1;stroke:none;stroke-width:0.032125;stroke-miterlimit:4;stroke-dasharray:none;stroke-opacity:1"
     d="M 22.375,47.457873 C 12.825159,46.651336 4.8888398,40.515344 1.7891048,31.541817 0.23327585,27.037796 0.11561664,21.912226 1.4624411,17.311419 2.5610696,13.55846 4.4661658,10.303438 7.21875,7.4762662 c 3.918277,-4.0244515 8.979119,-6.4635382 14.625,-7.04855858 1.142024,-0.11833533 3.698706,-0.10054901 4.8125,0.0334796 4.028699,0.48479417 7.461498,1.75175318 10.702488,3.95001688 5.728452,3.8854321 9.393645,9.9678519 10.203118,16.9321629 0.14668,1.261961 0.129526,4.12812 -0.03225,5.388617 -0.573434,4.467953 -2.264379,8.496508 -5.012169,11.941139 -0.824289,1.033329 -2.605274,2.808822 -3.673686,3.662359 -3.58825,2.866593 -7.818059,4.579876 -12.513848,5.068731 -0.828445,0.08625 -3.189728,0.118283 -3.954902,0.05366 z m 3.207038,-0.461148 c 3.936747,-0.282082 7.612649,-1.482802 10.947286,-3.575891 2.404498,-1.509258 5.013008,-4.025814 6.623058,-6.389584 2.063961,-3.030173 3.34101,-6.347709 3.884138,-10.090275 C 47.199879,25.815306 47.261653,23.427492 47.161112,22.125 46.892044,18.639275 45.733806,15.012472 43.936721,12.028435 40.267919,5.9364349 34.112342,1.9230568 26.96875,0.96547756 25.786506,0.80700092 23.128948,0.7736064 21.90625,0.90186281 20.760114,1.0220882 20.069789,1.1321999 19.09375,1.3504766 12.870689,2.7421725 7.5572575,6.5808681 4.2664232,12.0625 0.53466404,18.278592 -0.04187839,25.965457 2.7197514,32.683806 c 1.1765895,2.862346 2.8378115,5.347576 5.0590555,7.568477 1.8293118,1.829029 3.7237371,3.199521 5.9967731,4.338267 3.643703,1.825424 7.875393,2.687849 11.806458,2.406175 z"
     id="path6561"
     transform="matrix(20,0,0,20,0,-960)" />
  <path
     style="fill:#40a040;fill-opacity:1;stroke:none;stroke-width:0.032125;stroke-miterlimit:4;stroke-dasharray:none;stroke-opacity:1"
     d="M 22,44.528376 C 18.885075,44.175769 16.133941,43.263073 13.545066,41.72343 8.7158154,38.851402 5.3108359,34.235777 3.9696678,28.743486 3.0601659,25.018935 3.2483535,20.910965 4.4952404,17.2707 5.5183875,14.28364 7.0864653,11.728301 9.2767677,9.4787262 11.029787,7.6782672 12.805367,6.3982863 15.071842,5.3011694 17.275947,4.2342433 19.203012,3.6622231 21.694907,3.3352115 22.845358,3.1842378 25.324622,3.1842 26.5,3.3351382 c 1.931716,0.2480647 3.776737,0.7191474 5.329264,1.3607018 0.812792,0.3358719 2.336958,1.1009531 3.108688,1.560459 1.409131,0.8390295 3.181544,2.2967404 4.361936,3.587451 2.526494,2.762617 4.222696,5.973693 5.006857,9.478467 1.389115,6.20859 -0.09134,12.615098 -4.063431,17.584033 -1.032887,1.292103 -2.711621,2.874244 -4.118314,3.881349 -2.717995,1.945915 -6.017966,3.236938 -9.40625,3.679934 -1.116472,0.145972 -3.675263,0.178964 -4.71875,0.06084 z m 4.110744,-0.470787 c 3.724595,-0.332935 7.583782,-1.90003 10.608006,-4.30758 0.891493,-0.709707 2.193906,-1.99232 2.982854,-2.937509 2.981406,-3.57183 4.64332,-8.193194 4.641288,-12.90625 -0.002,-4.675983 -1.552838,-9.050886 -4.519638,-12.75 C 39.156017,10.324314 37.602544,8.782155 36.75,8.1053774 33.663316,5.6550668 29.918862,4.1416742 25.977753,3.7515672 25.046654,3.6594032 23.013626,3.6739065 22.03125,3.7797209 19.39808,4.0633468 17.320482,4.6881272 14.842959,5.9414017 8.8034593,8.9965302 4.721465,14.974368 3.9626281,21.875 c -0.09895,0.899819 -0.099573,3.254723 -0.00109,4.125 0.2309119,2.04057 0.7590252,4.032472 1.5824955,5.96875 2.4579885,5.779625 7.7333274,10.190472 13.9342534,11.650792 2.215269,0.521697 4.21737,0.653927 6.632459,0.438047 z"
     id="path6600"
     transform="matrix(20,0,0,20,0,-960)" />
</svg>
