<svg xmlns="http://www.w3.org/2000/svg" width="19.4" height="19.4" viewBox="0 0 19.4 19.4">
  <g transform="translate(-289.8 -467.8)">
    <path id="inventory_2_FILL0_wght400_GRAD0_opsz48" d="M4.95,21.528V9.842a1.021,1.021,0,0,1-.641-.475A1.55,1.55,0,0,1,4,8.441V5.425a1.38,1.38,0,0,1,.427-.986,1.35,1.35,0,0,1,1-.439h16.15a1.363,1.363,0,0,1,.986.439A1.363,1.363,0,0,1,23,5.425V8.441a1.55,1.55,0,0,1-.309.926,1.021,1.021,0,0,1-.641.475V21.528a1.442,1.442,0,0,1-.439,1.009,1.332,1.332,0,0,1-.986.463H6.375a1.319,1.319,0,0,1-1-.463A1.461,1.461,0,0,1,4.95,21.528ZM6.375,9.866V21.575h14.25V9.866Zm15.2-1.425V5.425H5.425V8.441ZM10.65,14.854h5.7V13.429h-5.7ZM6.375,21.575v0Z" transform="translate(286 464)" fill="#b6b6b6"/>
    <path id="inventory_2_FILL0_wght400_GRAD0_opsz48_-_Kontur" data-name="inventory_2_FILL0_wght400_GRAD0_opsz48 - Kontur" d="M20.625,23a1.332,1.332,0,0,0,.986-.463,1.442,1.442,0,0,0,.439-1.009V9.842a1.021,1.021,0,0,0,.641-.475A1.55,1.55,0,0,0,23,8.441V5.425a1.363,1.363,0,0,0-.439-.986A1.363,1.363,0,0,0,21.575,4H5.425a1.35,1.35,0,0,0-1,.439A1.38,1.38,0,0,0,4,5.425V8.441a1.55,1.55,0,0,0,.309.926,1.021,1.021,0,0,0,.641.475V21.528a1.461,1.461,0,0,0,.428,1.009,1.319,1.319,0,0,0,1,.463h14.25M6.375,21.575V9.866h14.25V21.575H6.375m-.95-16.15h16.15V8.441H5.425V5.425m.95,16.15v0m9.975-6.721V13.429h-5.7v1.425h5.7M20.625,23.2H6.375a1.517,1.517,0,0,1-1.144-.527,1.661,1.661,0,0,1-.481-1.145V10a1.374,1.374,0,0,1-.6-.512A1.753,1.753,0,0,1,3.8,8.441V5.425A1.58,1.58,0,0,1,4.284,4.3a1.548,1.548,0,0,1,1.141-.5h16.15a1.562,1.562,0,0,1,1.127.5,1.562,1.562,0,0,1,.5,1.127V8.441a1.753,1.753,0,0,1-.347,1.043,1.374,1.374,0,0,1-.6.512V21.528a1.641,1.641,0,0,1-.494,1.147A1.53,1.53,0,0,1,20.625,23.2ZM6.575,21.375h13.85V10.066H6.575ZM5.625,8.241h15.75V5.625H5.625ZM16.55,15.054h-6.1V13.229h6.1Z" transform="translate(286 464)" fill="#b6b6b6"/>
  </g>
</svg>
